<?xml version="1.0" standalone="no"?>
<!DOCTYPE svg PUBLIC "-//W3C//DTD SVG 20010904//EN"
 "http://www.w3.org/TR/2001/REC-SVG-20010904/DTD/svg10.dtd">
<svg version="1.0" xmlns="http://www.w3.org/2000/svg"
 width="4096.000000pt" height="881.000000pt" viewBox="0 0 4096.000000 881.000000"
 preserveAspectRatio="xMidYMid meet">

<g transform="translate(0.000000,881.000000) scale(0.100000,-0.100000)"
fill="#000000" stroke="none">
<path d="M10725 8804 c-749 -39 -1394 -324 -1891 -836 -442 -456 -722 -1048
-824 -1742 -62 -423 -51 -917 30 -1341 188 -984 753 -1770 1545 -2151 400
-192 808 -275 1280 -261 767 24 1400 280 1914 772 64 62 102 92 105 84 3 -8
19 -95 37 -194 17 -99 39 -206 49 -237 49 -159 168 -255 346 -279 50 -6 229
-9 480 -7 351 4 406 6 454 22 118 39 199 117 243 234 l22 57 3 2665 c2 1856
-1 2686 -8 2735 -26 171 -131 287 -291 324 -26 6 -226 11 -489 11 -364 0 -456
-3 -503 -15 -151 -39 -248 -128 -296 -272 -10 -32 -29 -130 -41 -218 -12 -88
-23 -161 -25 -164 -3 -2 -54 44 -115 102 -366 351 -793 567 -1305 662 -203 37
-523 59 -720 49z m680 -1525 c752 -65 1235 -527 1362 -1304 27 -169 24 -507
-6 -680 -43 -245 -139 -499 -252 -667 -279 -415 -723 -639 -1269 -638 -847 2
-1423 530 -1520 1395 -13 118 -13 360 1 483 33 305 140 602 295 819 79 110
241 270 344 340 294 198 658 286 1045 252z"/>
<path d="M17920 8803 c-748 -33 -1408 -311 -1895 -798 -470 -470 -759 -1106
-840 -1845 -85 -787 66 -1566 420 -2159 525 -879 1425 -1343 2506 -1290 712
35 1259 266 1757 743 l112 108 0 -231 c0 -337 -24 -514 -100 -742 -163 -490
-531 -821 -1067 -960 -242 -62 -345 -73 -693 -73 -246 0 -342 3 -440 17 -361
50 -659 128 -952 248 -233 96 -225 93 -333 94 -85 0 -106 -3 -142 -23 -56 -29
-108 -75 -142 -126 -43 -62 -369 -714 -386 -771 -19 -64 -19 -181 0 -235 38
-108 118 -175 340 -284 630 -311 1372 -467 2225 -468 312 0 509 14 767 57
1072 179 1901 752 2331 1611 150 299 239 594 295 974 21 145 21 147 24 2897 4
3009 7 2828 -52 2929 -35 60 -117 129 -183 156 -56 23 -63 23 -521 26 -301 2
-481 -1 -515 -8 -148 -31 -260 -128 -311 -270 -9 -25 -27 -120 -39 -213 -13
-92 -26 -170 -30 -174 -3 -3 -52 39 -108 93 -291 283 -628 482 -1012 598 -119
36 -319 79 -451 96 -97 12 -393 31 -455 28 -25 -1 -74 -3 -110 -5z m690 -1523
c869 -75 1371 -637 1370 -1532 -1 -279 -53 -514 -166 -743 -216 -437 -638
-736 -1139 -805 -103 -14 -377 -14 -480 0 -453 63 -809 272 -1038 609 -285
422 -338 1081 -127 1598 245 599 853 936 1580 873z"/>
<path d="M25059 8800 c-1245 -79 -2221 -885 -2568 -2122 -240 -855 -162 -1854
204 -2624 478 -1004 1379 -1584 2460 -1584 785 1 1479 266 1988 759 64 63 119
112 121 110 2 -2 22 -102 44 -223 48 -258 71 -315 157 -395 60 -55 128 -85
227 -101 83 -13 794 -13 878 1 167 26 283 132 319 290 15 65 15 5380 0 5451
-23 108 -92 204 -178 248 -93 47 -128 50 -594 50 -498 0 -533 -4 -634 -69
-132 -85 -175 -178 -209 -456 -10 -77 -19 -142 -20 -144 -2 -2 -49 40 -106 92
-223 208 -403 334 -643 452 -327 160 -653 241 -1071 265 -184 11 -203 11 -375
0z m724 -1520 c607 -50 1047 -362 1262 -895 100 -248 147 -580 125 -880 -34
-464 -181 -817 -455 -1091 -212 -212 -441 -332 -757 -396 -98 -20 -142 -23
-333 -22 -199 0 -232 3 -346 27 -306 64 -536 184 -734 382 -296 295 -445 701
-445 1215 0 342 52 592 180 855 226 467 656 756 1199 805 125 11 173 11 304 0z"/>
<path d="M733 8645 c-142 -39 -230 -127 -268 -270 -10 -39 -92 -966 -235
-2680 -120 -1441 -221 -2642 -223 -2670 -7 -76 10 -179 37 -233 35 -69 105
-127 185 -154 64 -22 82 -22 546 -26 326 -2 505 0 559 8 185 27 288 117 331
288 9 36 47 589 105 1517 50 803 94 1473 98 1488 6 24 68 -81 522 -889 283
-505 534 -943 557 -975 50 -69 129 -131 209 -163 105 -42 180 -48 579 -44 322
4 377 7 425 22 129 42 211 105 283 214 25 37 300 499 613 1027 631 1068 573
970 578 964 2 -2 34 -701 70 -1554 49 -1122 71 -1568 82 -1615 30 -131 111
-221 237 -263 58 -19 90 -21 543 -25 513 -4 643 3 736 38 64 24 127 80 158
139 52 103 62 -61 -174 2846 -136 1676 -223 2692 -232 2730 -33 127 -112 223
-222 267 -56 23 -64 23 -512 26 -314 2 -474 0 -515 -8 -130 -25 -262 -117
-344 -239 -21 -31 -419 -692 -885 -1469 -467 -778 -852 -1410 -856 -1405 -4 4
-372 660 -816 1458 -894 1601 -852 1533 -991 1604 -117 59 -140 61 -658 60
-372 0 -481 -3 -522 -14z"/>
<path d="M30000 8646 c-144 -40 -239 -142 -270 -286 -8 -41 -10 -526 -8 -1930
l4 -1875 22 -139 c137 -841 584 -1402 1322 -1657 183 -63 325 -95 580 -130
120 -17 2417 -25 2511 -9 169 29 285 134 319 290 8 39 10 189 8 525 -3 463 -3
471 -26 526 -41 101 -126 178 -240 217 -42 15 -159 17 -1037 22 -1094 7 -1050
4 -1214 72 -236 98 -366 261 -438 548 -15 58 -17 239 -22 1805 l-6 1740 -22
56 c-42 103 -109 170 -211 211 -57 23 -58 23 -642 25 -446 1 -596 -1 -630 -11z"/>
<path d="M35150 8644 c-112 -30 -209 -116 -252 -222 l-23 -57 -3 -1560 c-3
-1625 -1 -1770 39 -2070 157 -1187 800 -1979 1786 -2200 170 -38 304 -55 508
-62 537 -18 1059 95 1450 315 205 115 358 235 534 418 l130 135 10 -38 c5 -21
26 -114 46 -208 45 -212 79 -289 165 -368 66 -62 133 -92 238 -107 90 -13 760
-13 842 1 192 30 307 152 330 350 7 55 10 984 8 2729 -3 2494 -4 2648 -21
2697 -37 110 -123 199 -230 239 -49 18 -82 19 -632 19 -532 0 -584 -1 -631
-18 -111 -39 -182 -107 -227 -217 l-22 -55 -5 -1530 c-6 -1675 -3 -1582 -66
-1835 -82 -329 -251 -598 -489 -778 -393 -296 -1064 -311 -1473 -33 -259 175
-419 460 -495 876 -21 119 -21 134 -27 1700 -5 1429 -7 1585 -22 1627 -39 115
-116 199 -217 240 -56 23 -58 23 -626 25 -479 2 -579 0 -625 -13z"/>
</g>
</svg>
