<?xml version="1.0" standalone="no"?>
<!DOCTYPE svg PUBLIC "-//W3C//DTD SVG 20010904//EN"
 "http://www.w3.org/TR/2001/REC-SVG-20010904/DTD/svg10.dtd">
<svg version="1.0" xmlns="http://www.w3.org/2000/svg"
 width="300.000000pt" height="300.000000pt" viewBox="0 0 300.000000 300.000000"
 preserveAspectRatio="xMidYMid meet">

<g transform="translate(0.000000,300.000000) scale(0.100000,-0.100000)"
fill="#000000" stroke="none">
<path d="M0 1500 l0 -1500 1500 0 1500 0 0 1500 0 1500 -1500 0 -1500 0 0
-1500z m224 294 c9 -3 39 -48 66 -100 28 -51 55 -96 59 -98 4 -3 31 36 61 85
65 111 73 119 115 119 42 0 65 -22 65 -63 1 -18 7 -102 14 -187 9 -104 10
-159 4 -167 -6 -7 -32 -13 -59 -13 -27 0 -51 5 -56 13 -4 6 -10 56 -13 110
l-5 97 -40 -67 c-37 -63 -43 -68 -78 -71 -46 -4 -59 6 -95 71 l-27 50 -6 -29
c-4 -16 -7 -56 -8 -90 0 -33 -6 -65 -13 -72 -15 -15 -104 -16 -113 -2 -4 6 1
97 10 203 18 207 21 217 76 217 15 0 34 -3 43 -6z m715 -15 l33 -20 15 20 c9
14 25 21 48 21 62 0 65 -10 65 -219 0 -132 -4 -191 -12 -199 -7 -7 -32 -12
-56 -12 -35 0 -45 4 -49 19 -5 19 -7 18 -51 -6 -39 -20 -57 -24 -109 -21 -51
3 -69 9 -100 34 -55 44 -83 104 -83 181 0 96 33 160 105 204 43 27 148 26 194
-2z m490 2 c33 -17 35 -17 52 0 22 22 67 25 93 6 16 -12 17 -32 14 -234 l-3
-221 -30 -44 c-20 -28 -49 -53 -85 -71 -51 -27 -61 -28 -140 -24 -96 5 -160
29 -160 59 0 11 7 33 16 50 13 25 20 29 42 24 121 -27 184 -19 212 27 11 18
20 40 20 49 0 16 -4 16 -42 -4 -164 -86 -331 73 -277 265 12 46 63 105 104
123 44 19 143 17 184 -5z m495 0 c28 -18 29 -18 47 0 22 22 81 25 98 5 8 -9
11 -74 9 -212 l-3 -199 -47 -3 c-38 -2 -50 1 -60 17 -12 19 -12 19 -42 -2 -36
-25 -120 -34 -170 -17 -86 28 -145 138 -131 245 8 68 52 137 102 164 52 27
156 28 197 2z m324 7 c8 -8 12 -54 12 -139 0 -158 0 -159 110 -159 87 0 100
-9 100 -67 0 -47 -14 -53 -130 -53 -119 0 -154 14 -190 72 -18 29 -20 51 -20
184 0 103 4 154 12 162 7 7 30 12 53 12 23 0 46 -5 53 -12z m350 0 c5 -7 12
-70 13 -139 4 -134 10 -152 57 -170 15 -6 34 -4 57 5 44 19 55 58 55 197 0 88
3 108 16 113 24 9 73 7 95 -4 18 -10 19 -23 19 -200 0 -103 -3 -195 -6 -204
-9 -24 -90 -22 -106 3 -11 19 -12 18 -40 -2 -18 -14 -48 -22 -86 -25 -83 -6
-131 20 -166 90 -24 48 -26 61 -26 189 0 121 2 139 18 148 24 15 88 13 100 -1z"/>
<path d="M824 1680 c-33 -13 -54 -50 -54 -95 0 -55 19 -87 61 -103 51 -19 104
3 125 53 40 96 -39 183 -132 145z"/>
<path d="M1310 1678 c-31 -17 -50 -53 -50 -96 0 -79 104 -122 167 -68 24 21
28 32 28 75 0 38 -5 56 -21 71 -26 26 -90 35 -124 18z"/>
<path d="M1790 1663 c-28 -25 -33 -37 -34 -76 -2 -81 54 -127 129 -106 42 12
65 50 65 108 0 54 -32 90 -86 98 -36 5 -46 1 -74 -24z"/>
</g>
</svg>
